<svg width="1025" height="211" viewBox="0 0 1025 211" fill="none" xmlns="http://www.w3.org/2000/svg">
<path d="M346.216 68L372.809 0.799995H386.633L413.033 68H396.521L383.849 33.92C383.337 32.576 382.825 31.136 382.313 29.6C381.801 28.064 381.289 26.496 380.777 24.896C380.265 23.232 379.753 21.632 379.241 20.096C378.793 18.496 378.409 17.024 378.089 15.68L380.969 15.584C380.585 17.184 380.137 18.752 379.625 20.288C379.177 21.824 378.697 23.36 378.185 24.896C377.737 26.368 377.225 27.872 376.649 29.408C376.073 30.88 375.529 32.416 375.017 34.016L362.345 68H346.216ZM358.889 55.136L363.977 42.848H394.889L399.881 55.136H358.889ZM419.689 68V17.024H434.281L434.761 26.24L432.745 26.336C433.513 24.672 434.473 23.2 435.625 21.92C436.841 20.64 438.185 19.584 439.657 18.752C441.193 17.856 442.761 17.184 444.361 16.736C446.025 16.288 447.689 16.064 449.353 16.064C451.849 16.064 454.121 16.448 456.169 17.216C458.217 17.984 460.009 19.232 461.545 20.96C463.081 22.624 464.297 24.896 465.193 27.776L462.793 27.584L463.561 26.048C464.393 24.512 465.449 23.136 466.729 21.92C468.073 20.64 469.545 19.584 471.145 18.752C472.745 17.856 474.409 17.184 476.137 16.736C477.865 16.288 479.529 16.064 481.129 16.064C485.161 16.064 488.521 16.864 491.209 18.464C493.897 20 495.913 22.336 497.257 25.472C498.665 28.608 499.369 32.416 499.369 36.896V68H483.913V38.144C483.913 36.096 483.625 34.4 483.049 33.056C482.473 31.712 481.609 30.72 480.457 30.08C479.369 29.376 477.993 29.024 476.329 29.024C474.985 29.024 473.737 29.248 472.585 29.696C471.497 30.144 470.537 30.752 469.705 31.52C468.937 32.288 468.329 33.184 467.881 34.208C467.433 35.232 467.209 36.384 467.209 37.664V68H451.753V38.048C451.753 36.128 451.465 34.496 450.889 33.152C450.313 31.808 449.449 30.784 448.297 30.08C447.145 29.376 445.801 29.024 444.265 29.024C442.921 29.024 441.673 29.248 440.521 29.696C439.433 30.144 438.473 30.752 437.641 31.52C436.873 32.288 436.265 33.184 435.817 34.208C435.369 35.232 435.145 36.352 435.145 37.568V68H419.689ZM530.945 68.864C526.657 68.864 522.817 67.744 519.424 65.504C516.097 63.2 513.441 60.064 511.457 56.096C509.473 52.064 508.48 47.52 508.48 42.464C508.48 37.28 509.473 32.704 511.457 28.736C513.441 24.768 516.161 21.664 519.617 19.424C523.073 17.12 527.009 15.968 531.425 15.968C533.857 15.968 536.065 16.32 538.049 17.024C540.097 17.728 541.889 18.72 543.425 20C544.961 21.216 546.273 22.656 547.361 24.32C548.449 25.92 549.249 27.648 549.761 29.504L546.593 29.12V17.024H561.857V68H546.305V55.712L549.761 55.616C549.249 57.408 548.417 59.104 547.265 60.704C546.113 62.304 544.705 63.712 543.041 64.928C541.377 66.144 539.521 67.104 537.473 67.808C535.425 68.512 533.249 68.864 530.945 68.864ZM535.169 55.904C537.537 55.904 539.585 55.36 541.313 54.272C543.041 53.184 544.385 51.648 545.345 49.664C546.305 47.616 546.785 45.216 546.785 42.464C546.785 39.712 546.305 37.344 545.345 35.36C544.385 33.312 543.041 31.744 541.313 30.656C539.585 29.504 537.537 28.928 535.169 28.928C532.865 28.928 530.849 29.504 529.121 30.656C527.457 31.744 526.145 33.312 525.185 35.36C524.225 37.344 523.745 39.712 523.745 42.464C523.745 45.216 524.225 47.616 525.185 49.664C526.145 51.648 527.457 53.184 529.121 54.272C530.849 55.36 532.865 55.904 535.169 55.904ZM573.394 68V59.168L600.466 24.416V29.504H573.394V17.024H615.634V26.24L590.002 59.936L589.618 55.52H616.498V68H573.394ZM651.542 68.96C645.91 68.96 641.014 67.84 636.854 65.6C632.694 63.296 629.462 60.192 627.158 56.288C624.854 52.32 623.702 47.808 623.702 42.752C623.702 38.848 624.342 35.264 625.622 32C626.902 28.736 628.694 25.92 630.998 23.552C633.302 21.12 636.022 19.264 639.158 17.984C642.358 16.64 645.846 15.968 649.622 15.968C653.206 15.968 656.47 16.608 659.414 17.888C662.422 19.168 665.014 20.96 667.19 23.264C669.366 25.568 671.03 28.288 672.182 31.424C673.334 34.56 673.846 37.984 673.718 41.696L673.622 45.824H633.014L630.806 37.184H661.142L659.51 39.008V37.088C659.382 35.488 658.87 34.08 657.974 32.864C657.142 31.584 656.022 30.592 654.614 29.888C653.206 29.184 651.606 28.832 649.814 28.832C647.318 28.832 645.174 29.344 643.382 30.368C641.654 31.328 640.342 32.768 639.446 34.688C638.55 36.544 638.102 38.848 638.102 41.6C638.102 44.416 638.678 46.88 639.83 48.992C641.046 51.04 642.774 52.64 645.014 53.792C647.318 54.944 650.038 55.52 653.174 55.52C655.35 55.52 657.27 55.2 658.934 54.56C660.662 53.92 662.518 52.832 664.502 51.296L671.702 61.472C669.718 63.2 667.606 64.608 665.366 65.696C663.126 66.784 660.822 67.584 658.454 68.096C656.15 68.672 653.846 68.96 651.542 68.96Z" fill="#ECAF12"/>
<path d="M0.479251 188V120.8H15.0713L39.5513 160.64L29.0873 160.544L53.8553 120.8H67.8713V188H52.0312V167.072C52.0312 161.312 52.1593 156.128 52.4153 151.52C52.7353 146.912 53.2473 142.336 53.9513 137.792L55.7753 142.784L37.1513 171.68H30.8153L12.5753 142.976L14.3993 137.792C15.1033 142.08 15.5833 146.496 15.8393 151.04C16.1593 155.52 16.3193 160.864 16.3193 167.072V188H0.479251ZM107.129 188.96C101.817 188.96 97.0805 187.808 92.9205 185.504C88.8245 183.2 85.5605 180.064 83.1285 176.096C80.7605 172.128 79.5765 167.584 79.5765 162.464C79.5765 157.344 80.7605 152.8 83.1285 148.832C85.5605 144.864 88.8245 141.728 92.9205 139.424C97.0805 137.12 101.817 135.968 107.129 135.968C112.441 135.968 117.145 137.12 121.241 139.424C125.401 141.728 128.665 144.864 131.033 148.832C133.401 152.8 134.585 157.344 134.585 162.464C134.585 167.584 133.401 172.128 131.033 176.096C128.665 180.064 125.401 183.2 121.241 185.504C117.145 187.808 112.441 188.96 107.129 188.96ZM107.129 175.712C109.433 175.712 111.481 175.136 113.273 173.984C115.065 172.832 116.473 171.264 117.497 169.28C118.521 167.296 119.001 165.024 118.937 162.464C119.001 159.904 118.521 157.632 117.497 155.648C116.473 153.6 115.065 152 113.273 150.848C111.481 149.696 109.433 149.12 107.129 149.12C104.825 149.12 102.745 149.696 100.889 150.848C99.0965 152 97.6885 153.6 96.6645 155.648C95.6405 157.632 95.1605 159.904 95.2245 162.464C95.1605 165.024 95.6405 167.296 96.6645 169.28C97.6885 171.264 99.0965 172.832 100.889 173.984C102.745 175.136 104.825 175.712 107.129 175.712ZM148.853 188V124.16H164.213V188H148.853ZM139.829 150.464V137.024H174.101V150.464H139.829ZM206.41 188.96C201.098 188.96 196.362 187.808 192.202 185.504C188.106 183.2 184.842 180.064 182.41 176.096C180.042 172.128 178.858 167.584 178.858 162.464C178.858 157.344 180.042 152.8 182.41 148.832C184.842 144.864 188.106 141.728 192.202 139.424C196.362 137.12 201.098 135.968 206.41 135.968C211.722 135.968 216.426 137.12 220.522 139.424C224.682 141.728 227.946 144.864 230.314 148.832C232.682 152.8 233.866 157.344 233.866 162.464C233.866 167.584 232.682 172.128 230.314 176.096C227.946 180.064 224.682 183.2 220.522 185.504C216.426 187.808 211.722 188.96 206.41 188.96ZM206.41 175.712C208.714 175.712 210.762 175.136 212.554 173.984C214.346 172.832 215.754 171.264 216.778 169.28C217.802 167.296 218.282 165.024 218.218 162.464C218.282 159.904 217.802 157.632 216.778 155.648C215.754 153.6 214.346 152 212.554 150.848C210.762 149.696 208.714 149.12 206.41 149.12C204.106 149.12 202.026 149.696 200.17 150.848C198.378 152 196.97 153.6 195.946 155.648C194.922 157.632 194.442 159.904 194.506 162.464C194.442 165.024 194.922 167.296 195.946 169.28C196.97 171.264 198.378 172.832 200.17 173.984C202.026 175.136 204.106 175.712 206.41 175.712ZM243.91 188V137.024H258.502L259.174 153.632L256.294 150.464C257.062 147.712 258.31 145.248 260.038 143.072C261.83 140.896 263.91 139.168 266.278 137.888C268.646 136.608 271.174 135.968 273.862 135.968C275.014 135.968 276.07 136.064 277.03 136.256C278.054 136.448 278.982 136.672 279.814 136.928L275.59 153.92C274.886 153.472 273.926 153.12 272.71 152.864C271.558 152.544 270.342 152.384 269.062 152.384C267.654 152.384 266.342 152.64 265.126 153.152C263.91 153.6 262.886 154.272 262.054 155.168C261.222 156.064 260.55 157.12 260.038 158.336C259.59 159.552 259.366 160.928 259.366 162.464V188H243.91ZM319.979 188V120.8H348.107C353.035 120.8 357.547 121.632 361.643 123.296C365.739 124.896 369.259 127.2 372.203 130.208C375.211 133.216 377.515 136.768 379.115 140.864C380.715 144.96 381.515 149.472 381.515 154.4C381.515 159.328 380.715 163.872 379.115 168.032C377.515 172.128 375.211 175.68 372.203 178.688C369.259 181.632 365.739 183.936 361.643 185.6C357.547 187.2 353.035 188 348.107 188H319.979ZM336.299 176.864L334.091 173.6H347.627C350.315 173.6 352.715 173.152 354.827 172.256C356.939 171.296 358.731 169.984 360.203 168.32C361.739 166.656 362.923 164.64 363.755 162.272C364.587 159.904 365.003 157.28 365.003 154.4C365.003 151.52 364.587 148.896 363.755 146.528C362.923 144.16 361.739 142.144 360.203 140.48C358.731 138.816 356.939 137.536 354.827 136.64C352.715 135.68 350.315 135.2 347.627 135.2H333.803L336.299 132.128V176.864ZM392.504 188V137.024H407.096L407.768 153.632L404.888 150.464C405.656 147.712 406.904 145.248 408.632 143.072C410.424 140.896 412.504 139.168 414.872 137.888C417.24 136.608 419.768 135.968 422.456 135.968C423.608 135.968 424.664 136.064 425.624 136.256C426.648 136.448 427.576 136.672 428.408 136.928L424.184 153.92C423.48 153.472 422.52 153.12 421.304 152.864C420.152 152.544 418.936 152.384 417.656 152.384C416.248 152.384 414.936 152.64 413.72 153.152C412.504 153.6 411.48 154.272 410.648 155.168C409.816 156.064 409.144 157.12 408.632 158.336C408.184 159.552 407.96 160.928 407.96 162.464V188H392.504ZM437.055 188V137.024H452.415V188H437.055ZM444.735 126.944C441.855 126.944 439.583 126.272 437.919 124.928C436.319 123.52 435.519 121.536 435.519 118.976C435.519 116.672 436.351 114.784 438.015 113.312C439.679 111.84 441.919 111.104 444.735 111.104C447.615 111.104 449.855 111.808 451.455 113.216C453.055 114.56 453.855 116.48 453.855 118.976C453.855 121.344 453.023 123.264 451.359 124.736C449.759 126.208 447.551 126.944 444.735 126.944ZM482.495 188L461.183 137.024H478.175L490.847 175.136L487.103 175.52L500.159 137.024H516.959L494.591 188H482.495ZM525.836 188V137.024H541.196V188H525.836ZM533.516 126.944C530.636 126.944 528.364 126.272 526.7 124.928C525.1 123.52 524.3 121.536 524.3 118.976C524.3 116.672 525.132 114.784 526.796 113.312C528.46 111.84 530.7 111.104 533.516 111.104C536.396 111.104 538.636 111.808 540.236 113.216C541.836 114.56 542.636 116.48 542.636 118.976C542.636 121.344 541.804 123.264 540.14 124.736C538.54 126.208 536.332 126.944 533.516 126.944ZM555.629 188V137.024H570.221L570.701 147.392L567.629 148.544C568.333 146.24 569.581 144.16 571.373 142.304C573.229 140.384 575.437 138.848 577.997 137.696C580.557 136.544 583.245 135.968 586.061 135.968C589.901 135.968 593.133 136.768 595.757 138.368C598.381 139.904 600.365 142.24 601.708 145.376C603.053 148.448 603.725 152.224 603.725 156.704V188H588.269V157.952C588.269 155.904 587.981 154.208 587.405 152.864C586.829 151.52 585.933 150.528 584.717 149.888C583.565 149.184 582.125 148.864 580.397 148.928C579.053 148.928 577.805 149.152 576.653 149.6C575.501 149.984 574.509 150.592 573.677 151.424C572.845 152.192 572.173 153.088 571.661 154.112C571.213 155.136 570.989 156.256 570.989 157.472V188H563.405C561.613 188 560.077 188 558.797 188C557.517 188 556.461 188 555.629 188ZM639.894 210.08C635.734 210.08 631.574 209.472 627.414 208.256C623.318 207.04 619.99 205.472 617.43 203.552L622.806 192.8C624.15 193.696 625.622 194.464 627.222 195.104C628.886 195.808 630.614 196.352 632.406 196.736C634.198 197.12 636.022 197.312 637.878 197.312C641.142 197.312 643.798 196.832 645.846 195.872C647.894 194.912 649.43 193.44 650.454 191.456C651.478 189.536 651.99 187.104 651.99 184.16V175.616L654.966 176.096C654.518 178.208 653.398 180.128 651.606 181.856C649.878 183.584 647.734 184.992 645.174 186.08C642.614 187.104 639.894 187.616 637.014 187.616C632.406 187.616 628.278 186.56 624.63 184.448C621.046 182.272 618.198 179.296 616.086 175.52C614.038 171.68 613.014 167.264 613.014 162.272C613.014 157.152 614.038 152.64 616.086 148.736C618.134 144.768 620.95 141.664 624.534 139.424C628.118 137.12 632.15 135.968 636.63 135.968C638.55 135.968 640.374 136.192 642.102 136.64C643.894 137.088 645.526 137.696 646.998 138.464C648.534 139.168 649.878 140.032 651.03 141.056C652.246 142.016 653.206 143.072 653.91 144.224C654.678 145.376 655.19 146.56 655.446 147.776L652.278 148.544L652.854 137.024H667.446V183.872C667.446 188.032 666.806 191.712 665.526 194.912C664.31 198.176 662.486 200.928 660.054 203.168C657.686 205.472 654.806 207.2 651.414 208.352C648.022 209.504 644.182 210.08 639.894 210.08ZM640.278 175.712C642.774 175.712 644.918 175.168 646.71 174.08C648.566 172.928 649.974 171.36 650.934 169.376C651.958 167.392 652.47 165.056 652.47 162.368C652.47 159.68 651.958 157.344 650.934 155.36C649.974 153.312 648.566 151.744 646.71 150.656C644.918 149.504 642.774 148.928 640.278 148.928C637.846 148.928 635.734 149.504 633.942 150.656C632.15 151.744 630.742 153.312 629.718 155.36C628.758 157.344 628.278 159.68 628.278 162.368C628.278 165.056 628.758 167.392 629.718 169.376C630.742 171.36 632.15 172.928 633.942 174.08C635.734 175.168 637.846 175.712 640.278 175.712ZM735.439 188.96C731.023 188.96 727.023 188.448 723.439 187.424C719.919 186.336 716.783 184.8 714.031 182.816C711.279 180.768 708.815 178.368 706.639 175.616L716.527 164.384C719.727 168.672 722.927 171.552 726.127 173.024C729.391 174.496 732.751 175.232 736.207 175.232C737.935 175.232 739.503 175.008 740.911 174.56C742.319 174.112 743.407 173.472 744.175 172.64C744.943 171.744 745.327 170.656 745.327 169.376C745.327 168.416 745.071 167.552 744.559 166.784C744.111 166.016 743.471 165.344 742.639 164.768C741.807 164.192 740.815 163.68 739.663 163.232C738.511 162.72 737.295 162.304 736.015 161.984C734.735 161.6 733.423 161.28 732.079 161.024C728.367 160.192 725.135 159.168 722.383 157.952C719.631 156.736 717.327 155.264 715.471 153.536C713.679 151.744 712.335 149.728 711.439 147.488C710.543 145.184 710.095 142.624 710.095 139.808C710.095 136.8 710.767 134.048 712.111 131.552C713.519 128.992 715.375 126.816 717.679 125.024C720.047 123.168 722.767 121.76 725.839 120.8C728.911 119.776 732.111 119.264 735.439 119.264C739.855 119.264 743.631 119.744 746.767 120.704C749.967 121.6 752.687 122.912 754.927 124.64C757.231 126.368 759.183 128.448 760.783 130.88L750.703 140.576C749.359 138.912 747.887 137.536 746.287 136.448C744.751 135.36 743.087 134.528 741.295 133.952C739.567 133.376 737.775 133.088 735.919 133.088C733.999 133.088 732.335 133.344 730.927 133.856C729.583 134.304 728.527 134.976 727.759 135.872C726.991 136.704 726.607 137.728 726.607 138.944C726.607 140.032 726.927 140.96 727.567 141.728C728.207 142.496 729.071 143.2 730.159 143.84C731.247 144.416 732.495 144.928 733.903 145.376C735.311 145.76 736.783 146.08 738.319 146.336C741.839 147.04 745.007 147.968 747.823 149.12C750.703 150.272 753.167 151.68 755.215 153.344C757.327 155.008 758.927 156.992 760.015 159.296C761.167 161.536 761.743 164.16 761.743 167.168C761.743 171.84 760.591 175.808 758.287 179.072C756.047 182.272 752.943 184.736 748.975 186.464C745.071 188.128 740.559 188.96 735.439 188.96ZM794.747 188.96C789.819 188.96 785.403 187.808 781.499 185.504C777.595 183.2 774.491 180.064 772.187 176.096C769.947 172.064 768.827 167.52 768.827 162.464C768.827 157.408 769.947 152.896 772.187 148.928C774.491 144.896 777.595 141.728 781.499 139.424C785.403 137.12 789.819 135.968 794.747 135.968C799.291 135.968 803.451 136.768 807.227 138.368C811.067 139.968 814.107 142.208 816.347 145.088L807.995 155.072C807.099 154.048 806.043 153.088 804.827 152.192C803.611 151.296 802.267 150.592 800.795 150.08C799.323 149.568 797.787 149.312 796.187 149.312C793.755 149.312 791.611 149.888 789.755 151.04C787.899 152.128 786.459 153.664 785.435 155.648C784.411 157.632 783.899 159.904 783.899 162.464C783.899 164.896 784.411 167.104 785.435 169.088C786.523 171.072 787.995 172.64 789.851 173.792C791.707 174.944 793.819 175.52 796.187 175.52C797.851 175.52 799.387 175.328 800.795 174.944C802.203 174.496 803.483 173.856 804.635 173.024C805.851 172.192 806.971 171.168 807.995 169.952L816.25 180.032C814.075 182.784 811.035 184.96 807.131 186.56C803.291 188.16 799.163 188.96 794.747 188.96ZM824.691 188V116.96H839.763V147.392L836.691 148.544C837.395 146.24 838.643 144.16 840.435 142.304C842.291 140.384 844.499 138.848 847.059 137.696C849.619 136.544 852.307 135.968 855.123 135.968C858.963 135.968 862.195 136.768 864.819 138.368C867.443 139.904 869.427 142.24 870.771 145.376C872.115 148.448 872.787 152.224 872.787 156.704V188H857.331V157.952C857.331 155.904 857.043 154.208 856.467 152.864C855.891 151.52 854.995 150.528 853.779 149.888C852.627 149.184 851.187 148.864 849.459 148.928C848.115 148.928 846.867 149.152 845.715 149.6C844.563 149.984 843.571 150.592 842.739 151.424C841.907 152.192 841.235 153.088 840.723 154.112C840.275 155.136 840.051 156.256 840.051 157.472V188H832.467C830.675 188 829.139 188 827.859 188C826.579 188 825.523 188 824.691 188ZM909.629 188.96C904.317 188.96 899.581 187.808 895.421 185.504C891.325 183.2 888.061 180.064 885.629 176.096C883.261 172.128 882.077 167.584 882.077 162.464C882.077 157.344 883.261 152.8 885.629 148.832C888.061 144.864 891.325 141.728 895.421 139.424C899.581 137.12 904.317 135.968 909.629 135.968C914.941 135.968 919.645 137.12 923.741 139.424C927.901 141.728 931.165 144.864 933.533 148.832C935.901 152.8 937.085 157.344 937.085 162.464C937.085 167.584 935.901 172.128 933.533 176.096C931.165 180.064 927.901 183.2 923.741 185.504C919.645 187.808 914.941 188.96 909.629 188.96ZM909.629 175.712C911.933 175.712 913.981 175.136 915.773 173.984C917.565 172.832 918.973 171.264 919.997 169.28C921.021 167.296 921.501 165.024 921.437 162.464C921.501 159.904 921.021 157.632 919.997 155.648C918.973 153.6 917.565 152 915.773 150.848C913.981 149.696 911.933 149.12 909.629 149.12C907.325 149.12 905.245 149.696 903.389 150.848C901.597 152 900.189 153.6 899.165 155.648C898.141 157.632 897.661 159.904 897.725 162.464C897.661 165.024 898.141 167.296 899.165 169.28C900.189 171.264 901.597 172.832 903.389 173.984C905.245 175.136 907.325 175.712 909.629 175.712ZM971.129 188.96C965.817 188.96 961.081 187.808 956.921 185.504C952.825 183.2 949.561 180.064 947.129 176.096C944.761 172.128 943.577 167.584 943.577 162.464C943.577 157.344 944.761 152.8 947.129 148.832C949.561 144.864 952.825 141.728 956.921 139.424C961.081 137.12 965.817 135.968 971.129 135.968C976.441 135.968 981.145 137.12 985.241 139.424C989.401 141.728 992.665 144.864 995.033 148.832C997.401 152.8 998.585 157.344 998.585 162.464C998.585 167.584 997.401 172.128 995.033 176.096C992.665 180.064 989.401 183.2 985.241 185.504C981.145 187.808 976.441 188.96 971.129 188.96ZM971.129 175.712C973.433 175.712 975.481 175.136 977.273 173.984C979.065 172.832 980.473 171.264 981.497 169.28C982.521 167.296 983.001 165.024 982.937 162.464C983.001 159.904 982.521 157.632 981.497 155.648C980.473 153.6 979.065 152 977.273 150.848C975.481 149.696 973.433 149.12 971.129 149.12C968.825 149.12 966.745 149.696 964.889 150.848C963.097 152 961.689 153.6 960.665 155.648C959.641 157.632 959.161 159.904 959.225 162.464C959.161 165.024 959.641 167.296 960.665 169.28C961.689 171.264 963.097 172.832 964.889 173.984C966.745 175.136 968.825 175.712 971.129 175.712ZM1008.72 188V116.96H1024.08V188H1008.72Z" fill="white"/>
</svg>
