<svg width="1429" height="239" viewBox="0 0 1429 239" fill="none" xmlns="http://www.w3.org/2000/svg">
<path d="M549.216 96L575.809 28.8H589.633L616.033 96H599.521L586.849 61.92C586.337 60.576 585.825 59.136 585.313 57.6C584.801 56.064 584.289 54.496 583.777 52.896C583.265 51.232 582.753 49.632 582.241 48.096C581.793 46.496 581.409 45.024 581.089 43.68L583.969 43.584C583.585 45.184 583.137 46.752 582.625 48.288C582.177 49.824 581.697 51.36 581.185 52.896C580.737 54.368 580.225 55.872 579.649 57.408C579.073 58.88 578.529 60.416 578.017 62.016L565.345 96H549.216ZM561.889 83.136L566.977 70.848H597.889L602.881 83.136H561.889ZM622.689 96V45.024H637.281L637.761 54.24L635.745 54.336C636.513 52.672 637.473 51.2 638.625 49.92C639.841 48.64 641.185 47.584 642.657 46.752C644.193 45.856 645.761 45.184 647.361 44.736C649.025 44.288 650.689 44.064 652.353 44.064C654.849 44.064 657.121 44.448 659.169 45.216C661.217 45.984 663.009 47.232 664.545 48.96C666.081 50.624 667.297 52.896 668.193 55.776L665.793 55.584L666.561 54.048C667.393 52.512 668.449 51.136 669.729 49.92C671.073 48.64 672.545 47.584 674.145 46.752C675.745 45.856 677.409 45.184 679.137 44.736C680.865 44.288 682.529 44.064 684.129 44.064C688.161 44.064 691.521 44.864 694.209 46.464C696.897 48 698.913 50.336 700.257 53.472C701.665 56.608 702.369 60.416 702.369 64.896V96H686.913V66.144C686.913 64.096 686.625 62.4 686.049 61.056C685.473 59.712 684.609 58.72 683.457 58.08C682.369 57.376 680.993 57.024 679.329 57.024C677.985 57.024 676.737 57.248 675.585 57.696C674.497 58.144 673.537 58.752 672.705 59.52C671.937 60.288 671.329 61.184 670.881 62.208C670.433 63.232 670.209 64.384 670.209 65.664V96H654.753V66.048C654.753 64.128 654.465 62.496 653.889 61.152C653.313 59.808 652.449 58.784 651.297 58.08C650.145 57.376 648.801 57.024 647.265 57.024C645.921 57.024 644.673 57.248 643.521 57.696C642.433 58.144 641.473 58.752 640.641 59.52C639.873 60.288 639.265 61.184 638.817 62.208C638.369 63.232 638.145 64.352 638.145 65.568V96H622.689ZM733.945 96.864C729.657 96.864 725.817 95.744 722.424 93.504C719.097 91.2 716.441 88.064 714.457 84.096C712.473 80.064 711.48 75.52 711.48 70.464C711.48 65.28 712.473 60.704 714.457 56.736C716.441 52.768 719.161 49.664 722.617 47.424C726.073 45.12 730.009 43.968 734.425 43.968C736.857 43.968 739.065 44.32 741.049 45.024C743.097 45.728 744.889 46.72 746.425 48C747.961 49.216 749.273 50.656 750.361 52.32C751.449 53.92 752.249 55.648 752.761 57.504L749.593 57.12V45.024H764.857V96H749.305V83.712L752.761 83.616C752.249 85.408 751.417 87.104 750.265 88.704C749.113 90.304 747.705 91.712 746.041 92.928C744.377 94.144 742.521 95.104 740.473 95.808C738.425 96.512 736.249 96.864 733.945 96.864ZM738.169 83.904C740.537 83.904 742.585 83.36 744.313 82.272C746.041 81.184 747.385 79.648 748.345 77.664C749.305 75.616 749.785 73.216 749.785 70.464C749.785 67.712 749.305 65.344 748.345 63.36C747.385 61.312 746.041 59.744 744.313 58.656C742.585 57.504 740.537 56.928 738.169 56.928C735.865 56.928 733.849 57.504 732.121 58.656C730.457 59.744 729.145 61.312 728.185 63.36C727.225 65.344 726.745 67.712 726.745 70.464C726.745 73.216 727.225 75.616 728.185 77.664C729.145 79.648 730.457 81.184 732.121 82.272C733.849 83.36 735.865 83.904 738.169 83.904ZM776.394 96V87.168L803.466 52.416V57.504H776.394V45.024H818.634V54.24L793.002 87.936L792.618 83.52H819.498V96H776.394ZM854.542 96.96C848.91 96.96 844.014 95.84 839.854 93.6C835.694 91.296 832.462 88.192 830.158 84.288C827.854 80.32 826.702 75.808 826.702 70.752C826.702 66.848 827.342 63.264 828.622 60C829.902 56.736 831.694 53.92 833.998 51.552C836.302 49.12 839.022 47.264 842.158 45.984C845.358 44.64 848.846 43.968 852.622 43.968C856.206 43.968 859.47 44.608 862.414 45.888C865.422 47.168 868.014 48.96 870.19 51.264C872.366 53.568 874.03 56.288 875.182 59.424C876.334 62.56 876.846 65.984 876.718 69.696L876.622 73.824H836.014L833.806 65.184H864.142L862.51 67.008V65.088C862.382 63.488 861.87 62.08 860.974 60.864C860.142 59.584 859.022 58.592 857.614 57.888C856.206 57.184 854.606 56.832 852.814 56.832C850.318 56.832 848.174 57.344 846.382 58.368C844.654 59.328 843.342 60.768 842.446 62.688C841.55 64.544 841.102 66.848 841.102 69.6C841.102 72.416 841.678 74.88 842.83 76.992C844.046 79.04 845.774 80.64 848.014 81.792C850.318 82.944 853.038 83.52 856.174 83.52C858.35 83.52 860.27 83.2 861.934 82.56C863.662 81.92 865.518 80.832 867.502 79.296L874.702 89.472C872.718 91.2 870.606 92.608 868.366 93.696C866.126 94.784 863.822 95.584 861.454 96.096C859.15 96.672 856.846 96.96 854.542 96.96Z" fill="#ECAF12"/>
<path d="M203.479 216V148.8H218.071L242.551 188.64L232.087 188.544L256.855 148.8H270.871V216H255.031V195.072C255.031 189.312 255.159 184.128 255.415 179.52C255.735 174.912 256.247 170.336 256.951 165.792L258.775 170.784L240.151 199.68H233.815L215.575 170.976L217.399 165.792C218.103 170.08 218.583 174.496 218.839 179.04C219.159 183.52 219.319 188.864 219.319 195.072V216H203.479ZM310.129 216.96C304.817 216.96 300.081 215.808 295.921 213.504C291.825 211.2 288.561 208.064 286.129 204.096C283.761 200.128 282.577 195.584 282.577 190.464C282.577 185.344 283.761 180.8 286.129 176.832C288.561 172.864 291.825 169.728 295.921 167.424C300.081 165.12 304.817 163.968 310.129 163.968C315.441 163.968 320.145 165.12 324.241 167.424C328.401 169.728 331.665 172.864 334.033 176.832C336.401 180.8 337.585 185.344 337.585 190.464C337.585 195.584 336.401 200.128 334.033 204.096C331.665 208.064 328.401 211.2 324.241 213.504C320.145 215.808 315.441 216.96 310.129 216.96ZM310.129 203.712C312.433 203.712 314.481 203.136 316.273 201.984C318.065 200.832 319.473 199.264 320.497 197.28C321.521 195.296 322.001 193.024 321.937 190.464C322.001 187.904 321.521 185.632 320.497 183.648C319.473 181.6 318.065 180 316.273 178.848C314.481 177.696 312.433 177.12 310.129 177.12C307.825 177.12 305.745 177.696 303.889 178.848C302.097 180 300.689 181.6 299.665 183.648C298.641 185.632 298.161 187.904 298.225 190.464C298.161 193.024 298.641 195.296 299.665 197.28C300.689 199.264 302.097 200.832 303.889 201.984C305.745 203.136 307.825 203.712 310.129 203.712ZM351.853 216V152.16H367.213V216H351.853ZM342.829 178.464V165.024H377.101V178.464H342.829ZM409.41 216.96C404.098 216.96 399.362 215.808 395.202 213.504C391.106 211.2 387.842 208.064 385.41 204.096C383.042 200.128 381.858 195.584 381.858 190.464C381.858 185.344 383.042 180.8 385.41 176.832C387.842 172.864 391.106 169.728 395.202 167.424C399.362 165.12 404.098 163.968 409.41 163.968C414.722 163.968 419.426 165.12 423.522 167.424C427.682 169.728 430.946 172.864 433.314 176.832C435.682 180.8 436.866 185.344 436.866 190.464C436.866 195.584 435.682 200.128 433.314 204.096C430.946 208.064 427.682 211.2 423.522 213.504C419.426 215.808 414.722 216.96 409.41 216.96ZM409.41 203.712C411.714 203.712 413.762 203.136 415.554 201.984C417.346 200.832 418.754 199.264 419.778 197.28C420.802 195.296 421.282 193.024 421.218 190.464C421.282 187.904 420.802 185.632 419.778 183.648C418.754 181.6 417.346 180 415.554 178.848C413.762 177.696 411.714 177.12 409.41 177.12C407.106 177.12 405.026 177.696 403.17 178.848C401.378 180 399.97 181.6 398.946 183.648C397.922 185.632 397.442 187.904 397.506 190.464C397.442 193.024 397.922 195.296 398.946 197.28C399.97 199.264 401.378 200.832 403.17 201.984C405.026 203.136 407.106 203.712 409.41 203.712ZM446.91 216V165.024H461.502L462.174 181.632L459.294 178.464C460.062 175.712 461.31 173.248 463.038 171.072C464.83 168.896 466.91 167.168 469.278 165.888C471.646 164.608 474.174 163.968 476.862 163.968C478.014 163.968 479.07 164.064 480.03 164.256C481.054 164.448 481.982 164.672 482.814 164.928L478.59 181.92C477.886 181.472 476.926 181.12 475.71 180.864C474.558 180.544 473.342 180.384 472.062 180.384C470.654 180.384 469.342 180.64 468.126 181.152C466.91 181.6 465.886 182.272 465.054 183.168C464.222 184.064 463.55 185.12 463.038 186.336C462.59 187.552 462.366 188.928 462.366 190.464V216H446.91ZM522.979 216V148.8H551.107C556.035 148.8 560.547 149.632 564.643 151.296C568.739 152.896 572.259 155.2 575.203 158.208C578.211 161.216 580.515 164.768 582.115 168.864C583.715 172.96 584.515 177.472 584.515 182.4C584.515 187.328 583.715 191.872 582.115 196.032C580.515 200.128 578.211 203.68 575.203 206.688C572.259 209.632 568.739 211.936 564.643 213.6C560.547 215.2 556.035 216 551.107 216H522.979ZM539.299 204.864L537.091 201.6H550.627C553.315 201.6 555.715 201.152 557.827 200.256C559.939 199.296 561.731 197.984 563.203 196.32C564.739 194.656 565.923 192.64 566.755 190.272C567.587 187.904 568.003 185.28 568.003 182.4C568.003 179.52 567.587 176.896 566.755 174.528C565.923 172.16 564.739 170.144 563.203 168.48C561.731 166.816 559.939 165.536 557.827 164.64C555.715 163.68 553.315 163.2 550.627 163.2H536.803L539.299 160.128V204.864ZM595.504 216V165.024H610.096L610.768 181.632L607.888 178.464C608.656 175.712 609.904 173.248 611.632 171.072C613.424 168.896 615.504 167.168 617.872 165.888C620.24 164.608 622.768 163.968 625.456 163.968C626.608 163.968 627.664 164.064 628.624 164.256C629.648 164.448 630.576 164.672 631.408 164.928L627.184 181.92C626.48 181.472 625.52 181.12 624.304 180.864C623.152 180.544 621.936 180.384 620.656 180.384C619.248 180.384 617.936 180.64 616.72 181.152C615.504 181.6 614.48 182.272 613.648 183.168C612.816 184.064 612.144 185.12 611.632 186.336C611.184 187.552 610.96 188.928 610.96 190.464V216H595.504ZM640.055 216V165.024H655.415V216H640.055ZM647.735 154.944C644.855 154.944 642.583 154.272 640.919 152.928C639.319 151.52 638.519 149.536 638.519 146.976C638.519 144.672 639.351 142.784 641.015 141.312C642.679 139.84 644.919 139.104 647.735 139.104C650.615 139.104 652.855 139.808 654.455 141.216C656.055 142.56 656.855 144.48 656.855 146.976C656.855 149.344 656.023 151.264 654.359 152.736C652.759 154.208 650.551 154.944 647.735 154.944ZM685.495 216L664.183 165.024H681.175L693.847 203.136L690.103 203.52L703.159 165.024H719.959L697.591 216H685.495ZM728.836 216V165.024H744.196V216H728.836ZM736.516 154.944C733.636 154.944 731.364 154.272 729.7 152.928C728.1 151.52 727.3 149.536 727.3 146.976C727.3 144.672 728.132 142.784 729.796 141.312C731.46 139.84 733.7 139.104 736.516 139.104C739.396 139.104 741.636 139.808 743.236 141.216C744.836 142.56 745.636 144.48 745.636 146.976C745.636 149.344 744.804 151.264 743.14 152.736C741.54 154.208 739.332 154.944 736.516 154.944ZM758.629 216V165.024H773.221L773.701 175.392L770.629 176.544C771.333 174.24 772.581 172.16 774.373 170.304C776.229 168.384 778.437 166.848 780.997 165.696C783.557 164.544 786.245 163.968 789.061 163.968C792.901 163.968 796.133 164.768 798.757 166.368C801.381 167.904 803.365 170.24 804.708 173.376C806.053 176.448 806.725 180.224 806.725 184.704V216H791.269V185.952C791.269 183.904 790.981 182.208 790.405 180.864C789.829 179.52 788.933 178.528 787.717 177.888C786.565 177.184 785.125 176.864 783.397 176.928C782.053 176.928 780.805 177.152 779.653 177.6C778.501 177.984 777.509 178.592 776.677 179.424C775.845 180.192 775.173 181.088 774.661 182.112C774.213 183.136 773.989 184.256 773.989 185.472V216H766.405C764.613 216 763.077 216 761.797 216C760.517 216 759.461 216 758.629 216ZM842.894 238.08C838.734 238.08 834.574 237.472 830.414 236.256C826.318 235.04 822.99 233.472 820.43 231.552L825.806 220.8C827.15 221.696 828.622 222.464 830.222 223.104C831.886 223.808 833.614 224.352 835.406 224.736C837.198 225.12 839.022 225.312 840.878 225.312C844.142 225.312 846.798 224.832 848.846 223.872C850.894 222.912 852.43 221.44 853.454 219.456C854.478 217.536 854.99 215.104 854.99 212.16V203.616L857.966 204.096C857.518 206.208 856.398 208.128 854.606 209.856C852.878 211.584 850.734 212.992 848.174 214.08C845.614 215.104 842.894 215.616 840.014 215.616C835.406 215.616 831.278 214.56 827.63 212.448C824.046 210.272 821.198 207.296 819.086 203.52C817.038 199.68 816.014 195.264 816.014 190.272C816.014 185.152 817.038 180.64 819.086 176.736C821.134 172.768 823.95 169.664 827.534 167.424C831.118 165.12 835.15 163.968 839.63 163.968C841.55 163.968 843.374 164.192 845.102 164.64C846.894 165.088 848.526 165.696 849.998 166.464C851.534 167.168 852.878 168.032 854.03 169.056C855.246 170.016 856.206 171.072 856.91 172.224C857.678 173.376 858.19 174.56 858.446 175.776L855.278 176.544L855.854 165.024H870.446V211.872C870.446 216.032 869.806 219.712 868.526 222.912C867.31 226.176 865.486 228.928 863.054 231.168C860.686 233.472 857.806 235.2 854.414 236.352C851.022 237.504 847.182 238.08 842.894 238.08ZM843.278 203.712C845.774 203.712 847.918 203.168 849.71 202.08C851.566 200.928 852.974 199.36 853.934 197.376C854.958 195.392 855.47 193.056 855.47 190.368C855.47 187.68 854.958 185.344 853.934 183.36C852.974 181.312 851.566 179.744 849.71 178.656C847.918 177.504 845.774 176.928 843.278 176.928C840.846 176.928 838.734 177.504 836.942 178.656C835.15 179.744 833.742 181.312 832.718 183.36C831.758 185.344 831.278 187.68 831.278 190.368C831.278 193.056 831.758 195.392 832.718 197.376C833.742 199.36 835.15 200.928 836.942 202.08C838.734 203.168 840.846 203.712 843.278 203.712ZM938.439 216.96C934.023 216.96 930.023 216.448 926.439 215.424C922.919 214.336 919.783 212.8 917.031 210.816C914.279 208.768 911.815 206.368 909.639 203.616L919.527 192.384C922.727 196.672 925.927 199.552 929.127 201.024C932.391 202.496 935.751 203.232 939.207 203.232C940.935 203.232 942.503 203.008 943.911 202.56C945.319 202.112 946.407 201.472 947.175 200.64C947.943 199.744 948.327 198.656 948.327 197.376C948.327 196.416 948.071 195.552 947.559 194.784C947.111 194.016 946.471 193.344 945.639 192.768C944.807 192.192 943.815 191.68 942.663 191.232C941.511 190.72 940.295 190.304 939.015 189.984C937.735 189.6 936.423 189.28 935.079 189.024C931.367 188.192 928.135 187.168 925.383 185.952C922.631 184.736 920.327 183.264 918.471 181.536C916.679 179.744 915.335 177.728 914.439 175.488C913.543 173.184 913.095 170.624 913.095 167.808C913.095 164.8 913.767 162.048 915.111 159.552C916.519 156.992 918.375 154.816 920.679 153.024C923.047 151.168 925.767 149.76 928.839 148.8C931.911 147.776 935.111 147.264 938.439 147.264C942.855 147.264 946.631 147.744 949.767 148.704C952.967 149.6 955.687 150.912 957.927 152.64C960.231 154.368 962.183 156.448 963.783 158.88L953.703 168.576C952.359 166.912 950.887 165.536 949.287 164.448C947.751 163.36 946.087 162.528 944.295 161.952C942.567 161.376 940.775 161.088 938.919 161.088C936.999 161.088 935.335 161.344 933.927 161.856C932.583 162.304 931.527 162.976 930.759 163.872C929.991 164.704 929.607 165.728 929.607 166.944C929.607 168.032 929.927 168.96 930.567 169.728C931.207 170.496 932.071 171.2 933.159 171.84C934.247 172.416 935.495 172.928 936.903 173.376C938.311 173.76 939.783 174.08 941.319 174.336C944.839 175.04 948.007 175.968 950.823 177.12C953.703 178.272 956.167 179.68 958.215 181.344C960.327 183.008 961.927 184.992 963.015 187.296C964.167 189.536 964.743 192.16 964.743 195.168C964.743 199.84 963.591 203.808 961.287 207.072C959.047 210.272 955.943 212.736 951.975 214.464C948.071 216.128 943.559 216.96 938.439 216.96ZM997.747 216.96C992.819 216.96 988.403 215.808 984.499 213.504C980.595 211.2 977.491 208.064 975.187 204.096C972.947 200.064 971.827 195.52 971.827 190.464C971.827 185.408 972.947 180.896 975.187 176.928C977.491 172.896 980.595 169.728 984.499 167.424C988.403 165.12 992.819 163.968 997.747 163.968C1002.29 163.968 1006.45 164.768 1010.23 166.368C1014.07 167.968 1017.11 170.208 1019.35 173.088L1010.99 183.072C1010.1 182.048 1009.04 181.088 1007.83 180.192C1006.61 179.296 1005.27 178.592 1003.79 178.08C1002.32 177.568 1000.79 177.312 999.187 177.312C996.755 177.312 994.611 177.888 992.755 179.04C990.899 180.128 989.459 181.664 988.435 183.648C987.411 185.632 986.899 187.904 986.899 190.464C986.899 192.896 987.411 195.104 988.435 197.088C989.523 199.072 990.995 200.64 992.851 201.792C994.707 202.944 996.819 203.52 999.187 203.52C1000.85 203.52 1002.39 203.328 1003.79 202.944C1005.2 202.496 1006.48 201.856 1007.63 201.024C1008.85 200.192 1009.97 199.168 1010.99 197.952L1019.25 208.032C1017.07 210.784 1014.03 212.96 1010.13 214.56C1006.29 216.16 1002.16 216.96 997.747 216.96ZM1027.69 216V144.96H1042.76V175.392L1039.69 176.544C1040.4 174.24 1041.64 172.16 1043.44 170.304C1045.29 168.384 1047.5 166.848 1050.06 165.696C1052.62 164.544 1055.31 163.968 1058.12 163.968C1061.96 163.968 1065.2 164.768 1067.82 166.368C1070.44 167.904 1072.43 170.24 1073.77 173.376C1075.12 176.448 1075.79 180.224 1075.79 184.704V216H1060.33V185.952C1060.33 183.904 1060.04 182.208 1059.47 180.864C1058.89 179.52 1058 178.528 1056.78 177.888C1055.63 177.184 1054.19 176.864 1052.46 176.928C1051.12 176.928 1049.87 177.152 1048.72 177.6C1047.56 177.984 1046.57 178.592 1045.74 179.424C1044.91 180.192 1044.24 181.088 1043.72 182.112C1043.28 183.136 1043.05 184.256 1043.05 185.472V216H1035.47C1033.68 216 1032.14 216 1030.86 216C1029.58 216 1028.52 216 1027.69 216ZM1112.63 216.96C1107.32 216.96 1102.58 215.808 1098.42 213.504C1094.32 211.2 1091.06 208.064 1088.63 204.096C1086.26 200.128 1085.08 195.584 1085.08 190.464C1085.08 185.344 1086.26 180.8 1088.63 176.832C1091.06 172.864 1094.32 169.728 1098.42 167.424C1102.58 165.12 1107.32 163.968 1112.63 163.968C1117.94 163.968 1122.64 165.12 1126.74 167.424C1130.9 169.728 1134.16 172.864 1136.53 176.832C1138.9 180.8 1140.08 185.344 1140.08 190.464C1140.08 195.584 1138.9 200.128 1136.53 204.096C1134.16 208.064 1130.9 211.2 1126.74 213.504C1122.64 215.808 1117.94 216.96 1112.63 216.96ZM1112.63 203.712C1114.93 203.712 1116.98 203.136 1118.77 201.984C1120.56 200.832 1121.97 199.264 1123 197.28C1124.02 195.296 1124.5 193.024 1124.44 190.464C1124.5 187.904 1124.02 185.632 1123 183.648C1121.97 181.6 1120.56 180 1118.77 178.848C1116.98 177.696 1114.93 177.12 1112.63 177.12C1110.32 177.12 1108.24 177.696 1106.39 178.848C1104.6 180 1103.19 181.6 1102.16 183.648C1101.14 185.632 1100.66 187.904 1100.72 190.464C1100.66 193.024 1101.14 195.296 1102.16 197.28C1103.19 199.264 1104.6 200.832 1106.39 201.984C1108.24 203.136 1110.32 203.712 1112.63 203.712ZM1174.13 216.96C1168.82 216.96 1164.08 215.808 1159.92 213.504C1155.82 211.2 1152.56 208.064 1150.13 204.096C1147.76 200.128 1146.58 195.584 1146.58 190.464C1146.58 185.344 1147.76 180.8 1150.13 176.832C1152.56 172.864 1155.82 169.728 1159.92 167.424C1164.08 165.12 1168.82 163.968 1174.13 163.968C1179.44 163.968 1184.14 165.12 1188.24 167.424C1192.4 169.728 1195.66 172.864 1198.03 176.832C1200.4 180.8 1201.58 185.344 1201.58 190.464C1201.58 195.584 1200.4 200.128 1198.03 204.096C1195.66 208.064 1192.4 211.2 1188.24 213.504C1184.14 215.808 1179.44 216.96 1174.13 216.96ZM1174.13 203.712C1176.43 203.712 1178.48 203.136 1180.27 201.984C1182.06 200.832 1183.47 199.264 1184.5 197.28C1185.52 195.296 1186 193.024 1185.94 190.464C1186 187.904 1185.52 185.632 1184.5 183.648C1183.47 181.6 1182.06 180 1180.27 178.848C1178.48 177.696 1176.43 177.12 1174.13 177.12C1171.82 177.12 1169.74 177.696 1167.89 178.848C1166.1 180 1164.69 181.6 1163.66 183.648C1162.64 185.632 1162.16 187.904 1162.22 190.464C1162.16 193.024 1162.64 195.296 1163.66 197.28C1164.69 199.264 1166.1 200.832 1167.89 201.984C1169.74 203.136 1171.82 203.712 1174.13 203.712ZM1211.72 216V144.96H1227.08V216H1211.72Z" fill="black"/>
</svg>
