<svg width="1025" height="308" viewBox="0 0 1025 308" fill="none" xmlns="http://www.w3.org/2000/svg">
<path d="M307.497 177.5C306.33 177.5 305.247 177 304.247 176C303.08 175 302.497 173.583 302.497 171.75C302.497 170.417 302.914 168.75 303.747 166.75C304.58 164.75 306.08 162.583 308.247 160.25C312.08 151.75 315.664 144.833 318.997 139.5C322.497 134.167 326.414 128.417 330.747 122.25C328.58 121.917 326.997 121.167 325.997 120C324.997 118.667 324.497 117.167 324.497 115.5C324.497 112.833 325.247 110.333 326.747 108C328.414 105.5 329.914 104.25 331.247 104.25C333.247 104.25 335.33 104 337.497 103.5C339.83 103 342.164 102.75 344.497 102.75C350.497 94.0833 355.33 86.9167 358.997 81.25C362.83 75.5833 365.914 71 368.247 67.5C370.58 64 372.58 61.0833 374.247 58.75C376.08 56.4167 377.914 54.25 379.747 52.25C381.58 50.0833 383.83 47.5833 386.497 44.75C389.164 41.9167 392.664 38.3333 396.997 34C394.83 29.5 393.747 25.0833 393.747 20.75C393.747 14.75 395.497 9.83332 398.997 5.99999C402.497 2.16666 406.164 0.24999 409.997 0.24999C411.997 0.24999 413.83 0.833326 415.497 2C417.33 2.99999 418.83 4.83332 419.997 7.49999C424.664 18.1667 427.914 31.75 429.747 48.25C431.747 64.75 433.08 82.25 433.747 100.75C446.247 101.75 454.914 104 459.747 107.5C457.58 108.167 454.247 108.917 449.747 109.75C445.247 110.417 439.914 111.167 433.747 112C433.747 118.667 433.83 125.417 433.997 132.25C434.164 139.083 434.247 145.833 434.247 152.5C434.247 161.833 433.497 168.333 431.997 172C430.664 175.667 429.33 177.5 427.997 177.5C426.164 177.5 425.247 175.833 425.247 172.5C425.247 161.333 424.747 150.917 423.747 141.25C422.747 131.417 421.33 122.25 419.497 113.75C411.33 114.583 402.664 115.5 393.497 116.5C384.497 117.333 375.497 118.167 366.497 119C357.497 119.833 349.164 120.667 341.497 121.5C336.164 129.833 330.83 138.583 325.497 147.75C320.33 156.917 315.33 166.25 310.497 175.75C309.997 176.917 308.997 177.5 307.497 177.5ZM354.997 101.75C364.83 100.917 375.164 100.417 385.997 100.25C396.83 99.9167 407.08 99.75 416.747 99.75C413.914 87.9167 410.83 77.5 407.497 68.5C404.33 59.3333 401.83 51.5 399.997 45C395.664 49.3333 389.414 56.4167 381.247 66.25C373.247 76.0833 364.497 87.9167 354.997 101.75ZM458.504 165V114.024H473.096L473.576 123.24L471.56 123.336C472.328 121.672 473.288 120.2 474.44 118.92C475.656 117.64 477 116.584 478.472 115.752C480.008 114.856 481.576 114.184 483.176 113.736C484.84 113.288 486.504 113.064 488.168 113.064C490.664 113.064 492.936 113.448 494.984 114.216C497.032 114.984 498.824 116.232 500.36 117.96C501.896 119.624 503.112 121.896 504.008 124.776L501.608 124.584L502.376 123.048C503.208 121.512 504.264 120.136 505.544 118.92C506.888 117.64 508.36 116.584 509.96 115.752C511.56 114.856 513.224 114.184 514.952 113.736C516.68 113.288 518.344 113.064 519.944 113.064C523.976 113.064 527.336 113.864 530.024 115.464C532.712 117 534.728 119.336 536.072 122.472C537.48 125.608 538.184 129.416 538.184 133.896V165H522.728V135.144C522.728 133.096 522.44 131.4 521.864 130.056C521.288 128.712 520.424 127.72 519.272 127.08C518.184 126.376 516.808 126.024 515.144 126.024C513.8 126.024 512.552 126.248 511.4 126.696C510.312 127.144 509.352 127.752 508.52 128.52C507.752 129.288 507.144 130.184 506.696 131.208C506.248 132.232 506.024 133.384 506.024 134.664V165H490.568V135.048C490.568 133.128 490.28 131.496 489.704 130.152C489.128 128.808 488.264 127.784 487.112 127.08C485.96 126.376 484.616 126.024 483.08 126.024C481.736 126.024 480.488 126.248 479.336 126.696C478.248 127.144 477.288 127.752 476.456 128.52C475.688 129.288 475.08 130.184 474.632 131.208C474.184 132.232 473.96 133.352 473.96 134.568V165H458.504ZM569.76 165.864C565.472 165.864 561.632 164.744 558.24 162.504C554.912 160.2 552.256 157.064 550.272 153.096C548.288 149.064 547.296 144.52 547.296 139.464C547.296 134.28 548.288 129.704 550.272 125.736C552.256 121.768 554.976 118.664 558.432 116.424C561.888 114.12 565.824 112.968 570.24 112.968C572.672 112.968 574.88 113.32 576.864 114.024C578.912 114.728 580.704 115.72 582.24 117C583.776 118.216 585.088 119.656 586.176 121.32C587.264 122.92 588.064 124.648 588.576 126.504L585.408 126.12V114.024H600.672V165H585.12V152.712L588.576 152.616C588.064 154.408 587.232 156.104 586.08 157.704C584.928 159.304 583.52 160.712 581.856 161.928C580.192 163.144 578.336 164.104 576.288 164.808C574.24 165.512 572.064 165.864 569.76 165.864ZM573.984 152.904C576.352 152.904 578.4 152.36 580.128 151.272C581.856 150.184 583.2 148.648 584.16 146.664C585.12 144.616 585.6 142.216 585.6 139.464C585.6 136.712 585.12 134.344 584.16 132.36C583.2 130.312 581.856 128.744 580.128 127.656C578.4 126.504 576.352 125.928 573.984 125.928C571.68 125.928 569.664 126.504 567.936 127.656C566.272 128.744 564.96 130.312 564 132.36C563.04 134.344 562.56 136.712 562.56 139.464C562.56 142.216 563.04 144.616 564 146.664C564.96 148.648 566.272 150.184 567.936 151.272C569.664 152.36 571.68 152.904 573.984 152.904ZM612.209 165V156.168L639.281 121.416V126.504H612.209V114.024H654.449V123.24L628.817 156.936L628.433 152.52H655.313V165H612.209ZM690.357 165.96C684.725 165.96 679.829 164.84 675.669 162.6C671.509 160.296 668.277 157.192 665.973 153.288C663.669 149.32 662.517 144.808 662.517 139.752C662.517 135.848 663.157 132.264 664.437 129C665.717 125.736 667.509 122.92 669.813 120.552C672.117 118.12 674.837 116.264 677.973 114.984C681.173 113.64 684.661 112.968 688.437 112.968C692.021 112.968 695.285 113.608 698.229 114.888C701.237 116.168 703.829 117.96 706.005 120.264C708.181 122.568 709.845 125.288 710.997 128.424C712.149 131.56 712.661 134.984 712.533 138.696L712.437 142.824H671.829L669.621 134.184H699.957L698.325 136.008V134.088C698.197 132.488 697.685 131.08 696.789 129.864C695.957 128.584 694.837 127.592 693.429 126.888C692.021 126.184 690.421 125.832 688.629 125.832C686.133 125.832 683.989 126.344 682.197 127.368C680.469 128.328 679.157 129.768 678.261 131.688C677.365 133.544 676.917 135.848 676.917 138.6C676.917 141.416 677.493 143.88 678.645 145.992C679.861 148.04 681.589 149.64 683.829 150.792C686.133 151.944 688.853 152.52 691.989 152.52C694.165 152.52 696.085 152.2 697.749 151.56C699.477 150.92 701.333 149.832 703.317 148.296L710.517 158.472C708.533 160.2 706.421 161.608 704.181 162.696C701.941 163.784 699.637 164.584 697.269 165.096C694.965 165.672 692.661 165.96 690.357 165.96Z" fill="#ECAF12"/>
<path d="M0.479251 285V217.8H15.0713L39.5513 257.64L29.0873 257.544L53.8553 217.8H67.8713V285H52.0312V264.072C52.0312 258.312 52.1593 253.128 52.4153 248.52C52.7353 243.912 53.2473 239.336 53.9513 234.792L55.7753 239.784L37.1513 268.68H30.8153L12.5753 239.976L14.3993 234.792C15.1033 239.08 15.5833 243.496 15.8393 248.04C16.1593 252.52 16.3193 257.864 16.3193 264.072V285H0.479251ZM107.129 285.96C101.817 285.96 97.0805 284.808 92.9205 282.504C88.8245 280.2 85.5605 277.064 83.1285 273.096C80.7605 269.128 79.5765 264.584 79.5765 259.464C79.5765 254.344 80.7605 249.8 83.1285 245.832C85.5605 241.864 88.8245 238.728 92.9205 236.424C97.0805 234.12 101.817 232.968 107.129 232.968C112.441 232.968 117.145 234.12 121.241 236.424C125.401 238.728 128.665 241.864 131.033 245.832C133.401 249.8 134.585 254.344 134.585 259.464C134.585 264.584 133.401 269.128 131.033 273.096C128.665 277.064 125.401 280.2 121.241 282.504C117.145 284.808 112.441 285.96 107.129 285.96ZM107.129 272.712C109.433 272.712 111.481 272.136 113.273 270.984C115.065 269.832 116.473 268.264 117.497 266.28C118.521 264.296 119.001 262.024 118.937 259.464C119.001 256.904 118.521 254.632 117.497 252.648C116.473 250.6 115.065 249 113.273 247.848C111.481 246.696 109.433 246.12 107.129 246.12C104.825 246.12 102.745 246.696 100.889 247.848C99.0965 249 97.6885 250.6 96.6645 252.648C95.6405 254.632 95.1605 256.904 95.2245 259.464C95.1605 262.024 95.6405 264.296 96.6645 266.28C97.6885 268.264 99.0965 269.832 100.889 270.984C102.745 272.136 104.825 272.712 107.129 272.712ZM148.853 285V221.16H164.213V285H148.853ZM139.829 247.464V234.024H174.101V247.464H139.829ZM206.41 285.96C201.098 285.96 196.362 284.808 192.202 282.504C188.106 280.2 184.842 277.064 182.41 273.096C180.042 269.128 178.858 264.584 178.858 259.464C178.858 254.344 180.042 249.8 182.41 245.832C184.842 241.864 188.106 238.728 192.202 236.424C196.362 234.12 201.098 232.968 206.41 232.968C211.722 232.968 216.426 234.12 220.522 236.424C224.682 238.728 227.946 241.864 230.314 245.832C232.682 249.8 233.866 254.344 233.866 259.464C233.866 264.584 232.682 269.128 230.314 273.096C227.946 277.064 224.682 280.2 220.522 282.504C216.426 284.808 211.722 285.96 206.41 285.96ZM206.41 272.712C208.714 272.712 210.762 272.136 212.554 270.984C214.346 269.832 215.754 268.264 216.778 266.28C217.802 264.296 218.282 262.024 218.218 259.464C218.282 256.904 217.802 254.632 216.778 252.648C215.754 250.6 214.346 249 212.554 247.848C210.762 246.696 208.714 246.12 206.41 246.12C204.106 246.12 202.026 246.696 200.17 247.848C198.378 249 196.97 250.6 195.946 252.648C194.922 254.632 194.442 256.904 194.506 259.464C194.442 262.024 194.922 264.296 195.946 266.28C196.97 268.264 198.378 269.832 200.17 270.984C202.026 272.136 204.106 272.712 206.41 272.712ZM243.91 285V234.024H258.502L259.174 250.632L256.294 247.464C257.062 244.712 258.31 242.248 260.038 240.072C261.83 237.896 263.91 236.168 266.278 234.888C268.646 233.608 271.174 232.968 273.862 232.968C275.014 232.968 276.07 233.064 277.03 233.256C278.054 233.448 278.982 233.672 279.814 233.928L275.59 250.92C274.886 250.472 273.926 250.12 272.71 249.864C271.558 249.544 270.342 249.384 269.062 249.384C267.654 249.384 266.342 249.64 265.126 250.152C263.91 250.6 262.886 251.272 262.054 252.168C261.222 253.064 260.55 254.12 260.038 255.336C259.59 256.552 259.366 257.928 259.366 259.464V285H243.91ZM319.979 285V217.8H348.107C353.035 217.8 357.547 218.632 361.643 220.296C365.739 221.896 369.259 224.2 372.203 227.208C375.211 230.216 377.515 233.768 379.115 237.864C380.715 241.96 381.515 246.472 381.515 251.4C381.515 256.328 380.715 260.872 379.115 265.032C377.515 269.128 375.211 272.68 372.203 275.688C369.259 278.632 365.739 280.936 361.643 282.6C357.547 284.2 353.035 285 348.107 285H319.979ZM336.299 273.864L334.091 270.6H347.627C350.315 270.6 352.715 270.152 354.827 269.256C356.939 268.296 358.731 266.984 360.203 265.32C361.739 263.656 362.923 261.64 363.755 259.272C364.587 256.904 365.003 254.28 365.003 251.4C365.003 248.52 364.587 245.896 363.755 243.528C362.923 241.16 361.739 239.144 360.203 237.48C358.731 235.816 356.939 234.536 354.827 233.64C352.715 232.68 350.315 232.2 347.627 232.2H333.803L336.299 229.128V273.864ZM392.504 285V234.024H407.096L407.768 250.632L404.888 247.464C405.656 244.712 406.904 242.248 408.632 240.072C410.424 237.896 412.504 236.168 414.872 234.888C417.24 233.608 419.768 232.968 422.456 232.968C423.608 232.968 424.664 233.064 425.624 233.256C426.648 233.448 427.576 233.672 428.408 233.928L424.184 250.92C423.48 250.472 422.52 250.12 421.304 249.864C420.152 249.544 418.936 249.384 417.656 249.384C416.248 249.384 414.936 249.64 413.72 250.152C412.504 250.6 411.48 251.272 410.648 252.168C409.816 253.064 409.144 254.12 408.632 255.336C408.184 256.552 407.96 257.928 407.96 259.464V285H392.504ZM437.055 285V234.024H452.415V285H437.055ZM444.735 223.944C441.855 223.944 439.583 223.272 437.919 221.928C436.319 220.52 435.519 218.536 435.519 215.976C435.519 213.672 436.351 211.784 438.015 210.312C439.679 208.84 441.919 208.104 444.735 208.104C447.615 208.104 449.855 208.808 451.455 210.216C453.055 211.56 453.855 213.48 453.855 215.976C453.855 218.344 453.023 220.264 451.359 221.736C449.759 223.208 447.551 223.944 444.735 223.944ZM482.495 285L461.183 234.024H478.175L490.847 272.136L487.103 272.52L500.159 234.024H516.959L494.591 285H482.495ZM525.836 285V234.024H541.196V285H525.836ZM533.516 223.944C530.636 223.944 528.364 223.272 526.7 221.928C525.1 220.52 524.3 218.536 524.3 215.976C524.3 213.672 525.132 211.784 526.796 210.312C528.46 208.84 530.7 208.104 533.516 208.104C536.396 208.104 538.636 208.808 540.236 210.216C541.836 211.56 542.636 213.48 542.636 215.976C542.636 218.344 541.804 220.264 540.14 221.736C538.54 223.208 536.332 223.944 533.516 223.944ZM555.629 285V234.024H570.221L570.701 244.392L567.629 245.544C568.333 243.24 569.581 241.16 571.373 239.304C573.229 237.384 575.437 235.848 577.997 234.696C580.557 233.544 583.245 232.968 586.061 232.968C589.901 232.968 593.133 233.768 595.757 235.368C598.381 236.904 600.365 239.24 601.708 242.376C603.053 245.448 603.725 249.224 603.725 253.704V285H588.269V254.952C588.269 252.904 587.981 251.208 587.405 249.864C586.829 248.52 585.933 247.528 584.717 246.888C583.565 246.184 582.125 245.864 580.397 245.928C579.053 245.928 577.805 246.152 576.653 246.6C575.501 246.984 574.509 247.592 573.677 248.424C572.845 249.192 572.173 250.088 571.661 251.112C571.213 252.136 570.989 253.256 570.989 254.472V285H563.405C561.613 285 560.077 285 558.797 285C557.517 285 556.461 285 555.629 285ZM639.894 307.08C635.734 307.08 631.574 306.472 627.414 305.256C623.318 304.04 619.99 302.472 617.43 300.552L622.806 289.8C624.15 290.696 625.622 291.464 627.222 292.104C628.886 292.808 630.614 293.352 632.406 293.736C634.198 294.12 636.022 294.312 637.878 294.312C641.142 294.312 643.798 293.832 645.846 292.872C647.894 291.912 649.43 290.44 650.454 288.456C651.478 286.536 651.99 284.104 651.99 281.16V272.616L654.966 273.096C654.518 275.208 653.398 277.128 651.606 278.856C649.878 280.584 647.734 281.992 645.174 283.08C642.614 284.104 639.894 284.616 637.014 284.616C632.406 284.616 628.278 283.56 624.63 281.448C621.046 279.272 618.198 276.296 616.086 272.52C614.038 268.68 613.014 264.264 613.014 259.272C613.014 254.152 614.038 249.64 616.086 245.736C618.134 241.768 620.95 238.664 624.534 236.424C628.118 234.12 632.15 232.968 636.63 232.968C638.55 232.968 640.374 233.192 642.102 233.64C643.894 234.088 645.526 234.696 646.998 235.464C648.534 236.168 649.878 237.032 651.03 238.056C652.246 239.016 653.206 240.072 653.91 241.224C654.678 242.376 655.19 243.56 655.446 244.776L652.278 245.544L652.854 234.024H667.446V280.872C667.446 285.032 666.806 288.712 665.526 291.912C664.31 295.176 662.486 297.928 660.054 300.168C657.686 302.472 654.806 304.2 651.414 305.352C648.022 306.504 644.182 307.08 639.894 307.08ZM640.278 272.712C642.774 272.712 644.918 272.168 646.71 271.08C648.566 269.928 649.974 268.36 650.934 266.376C651.958 264.392 652.47 262.056 652.47 259.368C652.47 256.68 651.958 254.344 650.934 252.36C649.974 250.312 648.566 248.744 646.71 247.656C644.918 246.504 642.774 245.928 640.278 245.928C637.846 245.928 635.734 246.504 633.942 247.656C632.15 248.744 630.742 250.312 629.718 252.36C628.758 254.344 628.278 256.68 628.278 259.368C628.278 262.056 628.758 264.392 629.718 266.376C630.742 268.36 632.15 269.928 633.942 271.08C635.734 272.168 637.846 272.712 640.278 272.712ZM735.439 285.96C731.023 285.96 727.023 285.448 723.439 284.424C719.919 283.336 716.783 281.8 714.031 279.816C711.279 277.768 708.815 275.368 706.639 272.616L716.527 261.384C719.727 265.672 722.927 268.552 726.127 270.024C729.391 271.496 732.751 272.232 736.207 272.232C737.935 272.232 739.503 272.008 740.911 271.56C742.319 271.112 743.407 270.472 744.175 269.64C744.943 268.744 745.327 267.656 745.327 266.376C745.327 265.416 745.071 264.552 744.559 263.784C744.111 263.016 743.471 262.344 742.639 261.768C741.807 261.192 740.815 260.68 739.663 260.232C738.511 259.72 737.295 259.304 736.015 258.984C734.735 258.6 733.423 258.28 732.079 258.024C728.367 257.192 725.135 256.168 722.383 254.952C719.631 253.736 717.327 252.264 715.471 250.536C713.679 248.744 712.335 246.728 711.439 244.488C710.543 242.184 710.095 239.624 710.095 236.808C710.095 233.8 710.767 231.048 712.111 228.552C713.519 225.992 715.375 223.816 717.679 222.024C720.047 220.168 722.767 218.76 725.839 217.8C728.911 216.776 732.111 216.264 735.439 216.264C739.855 216.264 743.631 216.744 746.767 217.704C749.967 218.6 752.687 219.912 754.927 221.64C757.231 223.368 759.183 225.448 760.783 227.88L750.703 237.576C749.359 235.912 747.887 234.536 746.287 233.448C744.751 232.36 743.087 231.528 741.295 230.952C739.567 230.376 737.775 230.088 735.919 230.088C733.999 230.088 732.335 230.344 730.927 230.856C729.583 231.304 728.527 231.976 727.759 232.872C726.991 233.704 726.607 234.728 726.607 235.944C726.607 237.032 726.927 237.96 727.567 238.728C728.207 239.496 729.071 240.2 730.159 240.84C731.247 241.416 732.495 241.928 733.903 242.376C735.311 242.76 736.783 243.08 738.319 243.336C741.839 244.04 745.007 244.968 747.823 246.12C750.703 247.272 753.167 248.68 755.215 250.344C757.327 252.008 758.927 253.992 760.015 256.296C761.167 258.536 761.743 261.16 761.743 264.168C761.743 268.84 760.591 272.808 758.287 276.072C756.047 279.272 752.943 281.736 748.975 283.464C745.071 285.128 740.559 285.96 735.439 285.96ZM794.747 285.96C789.819 285.96 785.403 284.808 781.499 282.504C777.595 280.2 774.491 277.064 772.187 273.096C769.947 269.064 768.827 264.52 768.827 259.464C768.827 254.408 769.947 249.896 772.187 245.928C774.491 241.896 777.595 238.728 781.499 236.424C785.403 234.12 789.819 232.968 794.747 232.968C799.291 232.968 803.451 233.768 807.227 235.368C811.067 236.968 814.107 239.208 816.347 242.088L807.995 252.072C807.099 251.048 806.043 250.088 804.827 249.192C803.611 248.296 802.267 247.592 800.795 247.08C799.323 246.568 797.787 246.312 796.187 246.312C793.755 246.312 791.611 246.888 789.755 248.04C787.899 249.128 786.459 250.664 785.435 252.648C784.411 254.632 783.899 256.904 783.899 259.464C783.899 261.896 784.411 264.104 785.435 266.088C786.523 268.072 787.995 269.64 789.851 270.792C791.707 271.944 793.819 272.52 796.187 272.52C797.851 272.52 799.387 272.328 800.795 271.944C802.203 271.496 803.483 270.856 804.635 270.024C805.851 269.192 806.971 268.168 807.995 266.952L816.25 277.032C814.075 279.784 811.035 281.96 807.131 283.56C803.291 285.16 799.163 285.96 794.747 285.96ZM824.691 285V213.96H839.763V244.392L836.691 245.544C837.395 243.24 838.643 241.16 840.435 239.304C842.291 237.384 844.499 235.848 847.059 234.696C849.619 233.544 852.307 232.968 855.123 232.968C858.963 232.968 862.195 233.768 864.819 235.368C867.443 236.904 869.427 239.24 870.771 242.376C872.115 245.448 872.787 249.224 872.787 253.704V285H857.331V254.952C857.331 252.904 857.043 251.208 856.467 249.864C855.891 248.52 854.995 247.528 853.779 246.888C852.627 246.184 851.187 245.864 849.459 245.928C848.115 245.928 846.867 246.152 845.715 246.6C844.563 246.984 843.571 247.592 842.739 248.424C841.907 249.192 841.235 250.088 840.723 251.112C840.275 252.136 840.051 253.256 840.051 254.472V285H832.467C830.675 285 829.139 285 827.859 285C826.579 285 825.523 285 824.691 285ZM909.629 285.96C904.317 285.96 899.581 284.808 895.421 282.504C891.325 280.2 888.061 277.064 885.629 273.096C883.261 269.128 882.077 264.584 882.077 259.464C882.077 254.344 883.261 249.8 885.629 245.832C888.061 241.864 891.325 238.728 895.421 236.424C899.581 234.12 904.317 232.968 909.629 232.968C914.941 232.968 919.645 234.12 923.741 236.424C927.901 238.728 931.165 241.864 933.533 245.832C935.901 249.8 937.085 254.344 937.085 259.464C937.085 264.584 935.901 269.128 933.533 273.096C931.165 277.064 927.901 280.2 923.741 282.504C919.645 284.808 914.941 285.96 909.629 285.96ZM909.629 272.712C911.933 272.712 913.981 272.136 915.773 270.984C917.565 269.832 918.973 268.264 919.997 266.28C921.021 264.296 921.501 262.024 921.437 259.464C921.501 256.904 921.021 254.632 919.997 252.648C918.973 250.6 917.565 249 915.773 247.848C913.981 246.696 911.933 246.12 909.629 246.12C907.325 246.12 905.245 246.696 903.389 247.848C901.597 249 900.189 250.6 899.165 252.648C898.141 254.632 897.661 256.904 897.725 259.464C897.661 262.024 898.141 264.296 899.165 266.28C900.189 268.264 901.597 269.832 903.389 270.984C905.245 272.136 907.325 272.712 909.629 272.712ZM971.129 285.96C965.817 285.96 961.081 284.808 956.921 282.504C952.825 280.2 949.561 277.064 947.129 273.096C944.761 269.128 943.577 264.584 943.577 259.464C943.577 254.344 944.761 249.8 947.129 245.832C949.561 241.864 952.825 238.728 956.921 236.424C961.081 234.12 965.817 232.968 971.129 232.968C976.441 232.968 981.145 234.12 985.241 236.424C989.401 238.728 992.665 241.864 995.033 245.832C997.401 249.8 998.585 254.344 998.585 259.464C998.585 264.584 997.401 269.128 995.033 273.096C992.665 277.064 989.401 280.2 985.241 282.504C981.145 284.808 976.441 285.96 971.129 285.96ZM971.129 272.712C973.433 272.712 975.481 272.136 977.273 270.984C979.065 269.832 980.473 268.264 981.497 266.28C982.521 264.296 983.001 262.024 982.937 259.464C983.001 256.904 982.521 254.632 981.497 252.648C980.473 250.6 979.065 249 977.273 247.848C975.481 246.696 973.433 246.12 971.129 246.12C968.825 246.12 966.745 246.696 964.889 247.848C963.097 249 961.689 250.6 960.665 252.648C959.641 254.632 959.161 256.904 959.225 259.464C959.161 262.024 959.641 264.296 960.665 266.28C961.689 268.264 963.097 269.832 964.889 270.984C966.745 272.136 968.825 272.712 971.129 272.712ZM1008.72 285V213.96H1024.08V285H1008.72Z" fill="black"/>
</svg>
